<?xml version="1.0" encoding="UTF-8"?>
<svg id="_圖層_1" data-name="圖層_1" xmlns="http://www.w3.org/2000/svg" version="1.1" viewBox="0 0 85.04 85.04">
  <!-- Generator: Adobe Illustrator 29.0.1, SVG Export Plug-In . SVG Version: 2.1.0 Build 192)  -->
  <defs>
    <style>
      .st0 {
        fill: #4c2107;
      }
    </style>
  </defs>
  <path class="st0" d="M72.77,72.44c-7.71,7.78-18.41,12.6-30.23,12.6C19.05,85.04,0,66,0,42.5c0-8.05,2.24-15.6,6.14-22.01.04-.08.09-.15.15-.23.2-.35.42-.69.64-1.02.91-.08,1.84-.13,2.78-.13,3.83,0,7.5.74,10.86,2.08-.25.27-.5.53-.74.8t-.01.01c-4.89,5.43-7.87,12.6-7.87,20.49,0,16.9,13.7,30.61,30.6,30.61,8.61,0,16.39-3.55,21.95-9.28l8.28,8.61Z"/>
  <path class="st0" d="M42.66,22.07c-2.63,4.67-4.71,9.68-6.17,14.96-2.6-12.46-15.15-21.6-27.8-20.3,2.95-3.88,6.56-7.23,10.65-9.89,9.55,1.23,18.32,7.01,23.32,15.22Z"/>
  <path class="st0" d="M74.06,13.95c-.29.14-.59.28-.88.44-13.84,7.02-23.57,20.95-24.68,37.26v18.09c-3.82.88-8.12.88-11.94,0,0-4.57.03-12.78.04-18.14.66-13.56,5.8-25.95,14-35.69.72-.76,1.45-1.5,2.21-2.23-.05-.04-.1-.07-.15-.1-4.15-2.79-10.36-3.3-15-1.28,0,0-.01,0-.02,0-4.1-3.76-9.26-6.39-14.98-7.4C39.25-4.32,61.91-.09,74.06,13.95Z"/>
  <path class="st0" d="M36.57,63.2c0,2.42,0,4.24,0,4.65v-4.65h0Z"/>
</svg>